<svg class="svg-icon" style="width: 1em; height: 1em;vertical-align: middle;fill: currentColor;overflow: hidden;" viewBox="0 0 1024 1024" version="1.1" xmlns="http://www.w3.org/2000/svg"><path d="M338.418 177.188l122.998 305.154 202.772-259.096z" fill="#FFEFE4" /><path d="M19.246 97.33l90.428 316.338 228.744-236.48zM664.188 223.246l154.222 290.626 174.578-278.874z" fill="#EA82FA" /><path d="M509.7 211.502C212.84 169.532 27.428 106.096 25.59 105.46a10.002 10.002 0 0 1-6.182-12.72 9.996 9.996 0 0 1 12.718-6.182c1.822 0.63 185.594 63.464 480.372 105.14 235.982 33.364 418.496 34.83 482.034 30.944a10 10 0 1 1 1.22 19.962c-1.854 0.116-189.15 10.876-486.052-31.102z" fill="#6770E6" /><path d="M685.582 667.316l-122.996 305.154-202.774-259.096z" fill="#EA82FA" /><path d="M1004.754 587.458l-90.426 316.34-228.746-236.482zM359.812 713.374L205.592 1004l-174.58-278.872z" fill="#FFEFE4" /><path d="M514.302 701.632c296.86-41.97 482.272-105.406 484.11-106.042a10.002 10.002 0 0 0 6.182-12.72 9.996 9.996 0 0 0-12.718-6.182c-1.822 0.63-185.594 63.464-480.372 105.14-235.984 33.364-418.498 34.83-482.036 30.944a10 10 0 0 0-1.222 19.964c1.858 0.112 189.154 10.872 486.056-31.104z" fill="#6770E6" /><path d="M249.06 596.3l44.362 10.214c3.088 0.71 5.65-2.428 4.336-5.31l-18.876-41.424 23.422-39.034c1.63-2.716-0.562-6.124-3.71-5.766l-45.23 5.152-29.886-34.338c-2.08-2.39-5.998-1.358-6.63 1.748l-9.076 44.608-41.892 17.812c-2.916 1.24-3.144 5.286-0.386 6.846l39.62 22.416 3.994 45.346c0.278 3.156 4.054 4.624 6.39 2.484l33.562-30.754z" fill="#FF8354" /><path d="M863.316 159.428l37.226 26.2c2.592 1.824 6.148-0.116 6.02-3.282l-1.848-45.484 36.422-27.308c2.536-1.9 1.79-5.884-1.26-6.74l-43.83-12.298-14.716-43.078c-1.024-2.998-5.042-3.52-6.8-0.884l-25.24 37.884-45.516 0.684c-3.168 0.048-4.906 3.708-2.942 6.194l28.23 35.712-13.414 43.5c-0.934 3.028 2.01 5.812 4.982 4.712l42.686-15.812z" fill="#69EBFC" /><path d="M750.344 888.804a10 10 0 0 1-10-10V849.1a10 10 0 1 1 20 0v29.704a10 10 0 0 1-10 10zM735.286 903.734a10 10 0 0 1-10 10h-29.704a10 10 0 0 1 0-20h29.704a10 10 0 0 1 10 10zM750.218 918.792a10 10 0 0 1 10 10v29.704a10 10 0 0 1-20 0v-29.704a10 10 0 0 1 10-10zM765.274 903.86a10 10 0 0 1 10-10h29.704a10 10 0 0 1 0 20h-29.704a10 10 0 0 1-10-10z" fill="#FF8354" /><path d="M650.286 467.348a10 10 0 0 1-10-10v-29.704a10 10 0 0 1 20 0v29.704a10 10 0 0 1-10 10zM635.23 482.28a10 10 0 0 1-10 10h-29.704a10 10 0 0 1 0-20h29.704a10 10 0 0 1 10 10zM650.162 497.336a10 10 0 0 1 10 10v29.704a10 10 0 0 1-20 0v-29.704a10 10 0 0 1 10-10zM665.218 482.404a10 10 0 0 1 10-10h29.704a10 10 0 0 1 0 20h-29.704a10 10 0 0 1-10-10z" fill="#69EBFC" /><path d="M695.686 44.852m-10.102 0a10.102 10.102 0 1 0 20.204 0 10.102 10.102 0 1 0-20.204 0Z" fill="#FF8354" /><path d="M501.304 587.458m-10.102 0a10.102 10.102 0 1 0 20.204 0 10.102 10.102 0 1 0-20.204 0Z" fill="#FF8354" /><path d="M41.116 512m-10.102 0a10.102 10.102 0 1 0 20.204 0 10.102 10.102 0 1 0-20.204 0Z" fill="#69EBFC" /></svg>