<svg class="svg-icon" style="width: 1em;height: 1em;vertical-align: middle;fill: currentColor;overflow: hidden;" viewBox="0 0 1024 1024" version="1.1" xmlns="http://www.w3.org/2000/svg"><path d="M326.7072 560.2816a42.9568 42.9568 0 0 1-22.8352-6.5536L151.1424 458.9056C109.1072 432.9984 83.968 387.8912 83.968 338.3808V248.32c0-45.824 37.2736-83.1488 83.1488-83.1488h98.4064c23.9616 0 43.3664 19.4048 43.3664 43.3664s-19.4048 43.3664-43.3664 43.3664H170.6496v86.4768c0 19.2 9.7792 36.7104 26.112 46.7968l152.8832 94.9248c20.3264 12.6464 26.5728 39.3728 13.9776 59.6992a43.4688 43.4688 0 0 1-36.9152 20.48zM707.5328 560.2816a43.3152 43.3152 0 0 1-36.864-20.48c-12.6464-20.3264-6.4-47.0528 13.9776-59.6992l152.7296-94.8224c16.4864-10.1376 26.2656-27.648 26.2656-46.848V257.6384c0-3.1744-2.56-5.7344-5.7344-5.7344h-87.6032c-23.0912 0-43.264-17.408-44.7488-40.448-1.6384-25.2416 18.3808-46.2336 43.264-46.2336h98.4064c45.9264 0 83.1488 37.2224 83.1488 83.1488V338.432c0 49.5104-25.1904 94.6176-67.328 120.576l-152.6272 94.7712c-7.2192 4.352-15.104 6.5024-22.8864 6.5024z" fill="#FACF5D" /><path d="M914.9952 249.4464V343.552c0 22.528-12.4416 60.4672-52.2752 85.2992-39.8848 24.832-145.7664 86.272-145.7664 86.272l-17.3056 44.288c2.6112 0.4608 5.2224 0.8192 7.8848 0.8192 7.7824 0 15.7184-2.0992 22.8352-6.5536l152.6272-94.7712c42.1376-26.0096 67.328-71.0656 67.328-120.576V248.32c0-45.9264-37.2224-83.1488-83.1488-83.1488h-27.648c-0.0512 0.0512 75.4688 30.3616 75.4688 84.2752zM349.6448 480.1024L196.7616 385.1776c-16.3328-10.0864-26.112-27.5456-26.112-46.7968V251.904h94.8224c23.9616 0 43.3664-19.4048 43.3664-43.3664s-19.4048-43.3664-43.3664-43.3664h-44.9536l-1.6384 4.864v50.4832h-41.1648c-17.152 0-40.704-4.4032-40.704 38.7072v76.4928c0 14.6944 0.512 50.9952 38.2464 74.496 37.7344 23.552 51.7632 30.9248 51.7632 30.9248s2.0992 39.3216 17.92 75.9296l58.9824 36.608a43.28448 43.28448 0 0 0 59.6992-13.9264c12.5952-20.3264 6.3488-47.0528-13.9776-59.648z" fill="#F8B031" /><path d="M772.2496 165.2224h34.9184v92.1088h-34.9184z" fill="#F8B031" /><path d="M326.7072 570.5216c-9.984 0-19.712-2.7648-28.2112-8.0896L145.7664 467.6096C100.6592 439.808 73.728 391.4752 73.728 338.3808V248.32c0-51.456 41.8816-93.3888 93.3888-93.3888h96.9216c29.0304 0 53.1456 21.9648 54.9888 50.0224 0.9728 15.0016-4.1472 29.2864-14.3872 40.192-10.0864 10.752-24.3712 16.9472-39.1168 16.9472H180.8896v76.2368c0 15.616 7.936 29.8496 21.248 38.0928l152.8832 94.9248c12.1856 7.5264 20.6336 19.4048 23.9104 33.3312 3.2768 13.9264 0.8704 28.3136-6.656 40.448a53.1968 53.1968 0 0 1-45.568 25.3952zM167.0656 175.4624c-40.192 0-72.9088 32.7168-72.9088 72.9088V338.432c0 45.9264 23.296 87.7568 62.3104 111.8208l152.7808 94.8736c5.2736 3.2768 11.264 4.9664 17.408 4.9664a32.8704 32.8704 0 0 0 28.16-15.6672c4.6592-7.5264 6.144-16.384 4.096-24.9856s-7.2704-15.9232-14.7456-20.5824L191.3856 393.8304a64.84992 64.84992 0 0 1-30.976-55.5008V257.6384c0-8.8064 7.168-15.9744 15.9744-15.9744h89.088c9.2672 0 17.8176-3.7376 24.1664-10.496a32.73728 32.73728 0 0 0 8.8576-24.8832c-1.1264-17.3056-16.2816-30.8736-34.5088-30.8736H167.0656zM707.5328 570.5216c-18.688 0-35.7376-9.472-45.568-25.344-7.5776-12.1856-9.9328-26.5216-6.656-40.448s11.776-25.7536 23.9104-33.3312l152.7296-94.8736c13.4144-8.2944 21.4016-22.528 21.4016-38.144V262.144h-83.0976c-28.9792 0-53.1456-21.9648-54.9888-50.0224-0.9728-15.0016 4.1472-29.2864 14.3872-40.192 10.0864-10.752 24.3712-16.9472 39.1168-16.9472h98.4064c51.456 0 93.3888 41.8816 93.3888 93.3888V338.432c0 53.0944-26.9824 101.4272-72.192 129.3312l-152.576 94.7712a54.72256 54.72256 0 0 1-28.2624 7.9872z m61.2352-395.0592c-9.2672 0-17.8176 3.7376-24.1664 10.496a32.73728 32.73728 0 0 0-8.8576 24.8832c1.1264 17.3056 16.2816 30.8736 34.5088 30.8736h90.8288a12.7488 12.7488 0 0 1 12.7488 12.7488v83.9168c0 22.784-11.6224 43.5712-31.1296 55.6032l-152.7296 94.8224a32.73728 32.73728 0 0 0-14.7456 20.5824 32.9216 32.9216 0 0 0 4.096 24.9856 32.98304 32.98304 0 0 0 28.16 15.6672c6.144 0 12.1856-1.7408 17.408-4.9664l152.6272-94.7712c39.1168-24.1152 62.464-65.9456 62.464-111.9232V248.32c0-40.192-32.7168-72.9088-72.9088-72.9088h-98.304z" fill="#4B2254" /><path d="M748.7488 137.3184h-468.992a23.552 23.552 0 0 0-23.552 23.552v237.6704c0 88.0128 46.6432 165.12 116.5824 207.9744 31.488 35.7376 78.4896 105.216 78.4896 201.8304h117.6064s2.1504-108.1344 71.6288-193.3312c78.2336-40.6016 131.7376-122.2656 131.7376-216.5248V160.8192c0-13.0048-10.496-23.5008-23.5008-23.5008z" fill="#F55651" /><path d="M748.7488 137.3184h-468.992a23.552 23.552 0 0 0-23.552 23.552v237.6704c0 88.0128 46.6432 165.12 116.5824 207.9744 24.1152 27.392 57.2928 74.5984 71.4752 138.5984 15.9744 0.1024 30.3104-1.9968 41.2672-7.3728-8.8064-73.5232-56.8832-144.128-106.8544-183.3472C307.1488 494.592 308.1216 433.7664 308.1216 381.7984V184.7296h464.1792v-23.9104a23.54688 23.54688 0 0 0-23.552-23.5008z" fill="#F67969" /><path d="M748.7488 137.3184h-31.232v219.6992c0 41.8304 13.056 134.656-78.4896 203.264-91.4944 68.608-103.2704 173.2096-103.2704 173.2096H441.4464c6.0416 22.7328 9.8304 47.6672 9.8304 74.8544h117.6064s2.1504-108.1344 71.6288-193.3312c78.2336-40.6016 131.7376-122.2656 131.7376-216.5248V160.8192c0-13.0048-10.496-23.5008-23.5008-23.5008z" fill="#E3413F" /><path d="M568.8832 818.5856H451.2768c-5.632 0-10.24-4.608-10.24-10.24 0-73.1136-28.416-129.8944-52.2752-164.6592-10.6496-15.5136-23.8592-29.184-39.3216-40.5504-64.768-47.7696-103.4752-124.2624-103.4752-204.5952V160.8192c0-18.6368 15.1552-33.792 33.792-33.792h468.992c18.6368 0 33.792 15.1552 33.792 33.792v237.6704c0 84.48-41.8816 163.1744-112.0256 210.5856-22.3232 15.104-40.96 36.1984-53.8112 61.0304-35.6864 69.0176-37.5808 137.728-37.5808 138.3936a10.27072 10.27072 0 0 1-10.24 10.0864z m-107.52-20.48h97.8944c1.792-22.4768 9.1648-79.1552 39.2704-137.3696 14.4384-27.904 35.3792-51.6096 60.5184-68.608 64.512-43.5712 103.0144-115.9168 103.0144-193.5872V160.8192c0-7.3216-5.9904-13.312-13.312-13.312h-468.992c-7.3216 0-13.312 5.9392-13.312 13.312v237.6704c0 73.8816 35.584 144.2304 95.1296 188.1088 17.3056 12.7488 32.1536 28.0576 44.0832 45.4656 24.3712 35.5328 53.1968 92.6208 55.7056 166.0416z" fill="#4B2254" /><path d="M656.0768 779.264H372.8896c-12.8 0-24.2176 7.8848-28.8256 19.8144l-28.8768 75.264c-7.7824 20.224 7.168 41.9328 28.8256 41.9328h337.5104c21.1456 0 35.9936-20.736 29.2352-40.7552l-25.4464-75.264a30.8992 30.8992 0 0 0-29.2352-20.992z" fill="#FACF5D" /><path d="M635.5456 782.7968l34.304 93.1328H318.3616s-4.4544 14.848-1.2288 24.576 6.656 15.7184 51.7632 15.7184h305.8688c23.5008 0 44.3392-16.0256 33.9968-46.5408-10.3424-30.5664-15.4624-52.6336-24.4736-71.936-9.0112-19.3536-48.7424-14.9504-48.7424-14.9504z" fill="#F8B031" /><path d="M681.5232 926.464H344.0128c-13.5168 0-26.2144-6.656-33.8432-17.8176a40.99072 40.99072 0 0 1-4.5056-37.9904l28.8768-75.264a41.30304 41.30304 0 0 1 38.3488-26.368h283.1872c17.6128 0 33.28 11.2128 38.912 27.9552l25.4464 75.264c4.3008 12.6976 2.304 26.2144-5.5296 37.12s-19.968 17.1008-33.3824 17.1008zM372.8896 789.504c-8.4992 0-16.2304 5.3248-19.2512 13.2096l-28.8768 75.264c-2.4576 6.4512-1.6384 13.3632 2.2528 19.0464a20.3264 20.3264 0 0 0 16.9984 8.96h337.5104c6.7072 0 12.8512-3.1232 16.7424-8.6016 3.9424-5.4784 4.9152-12.2368 2.7648-18.6368l-25.4464-75.264a20.59264 20.59264 0 0 0-19.5072-14.0288H372.8896z" fill="#4B2254" /><path d="M545.1264 259.0208l21.76 46.336c3.584 7.6288 10.496 12.9024 18.5344 14.1312l48.64 7.424c20.1728 3.072 28.2624 29.184 13.6192 44.1344l-35.1744 36.0448c-5.7856 5.9392-8.448 14.4896-7.0656 22.8864l8.2944 50.944c3.4304 21.1456-17.664 37.2736-35.6864 27.2896l-43.52-24.064c-7.168-3.9424-15.7184-3.9424-22.8864 0l-43.52 24.064c-18.0736 9.984-39.168-6.144-35.6864-27.2896l8.2944-50.944c1.3824-8.3968-1.28-16.9472-7.0656-22.8864l-35.1744-36.0448c-14.592-14.9504-6.5536-41.0624 13.6192-44.1344l48.64-7.424c8.0384-1.2288 14.9504-6.5024 18.5344-14.1312l21.76-46.336c9.0112-19.2512 35.072-19.2512 44.0832 0z" fill="#E3413F" /><path d="M534.8352 257.3824l20.2752 41.1136a22.9632 22.9632 0 0 0 17.3056 12.544l45.3632 6.6048c18.8416 2.7136 26.368 25.9072 12.7488 39.168l-32.8192 32a22.89152 22.89152 0 0 0-6.6048 20.3264l7.7312 45.2096c3.2256 18.7392-16.4864 33.0752-33.3312 24.2176l-40.6016-21.3504a22.83008 22.83008 0 0 0-21.3504 0l-40.6016 21.3504c-16.8448 8.8576-36.5568-5.4272-33.3312-24.2176l7.7312-45.2096a22.9376 22.9376 0 0 0-6.6048-20.3264l-32.8192-32c-13.6192-13.2608-6.0928-36.4544 12.7488-39.168l45.3632-6.6048a23.05024 23.05024 0 0 0 17.3056-12.544l20.2752-41.1136c8.448-17.0496 32.768-17.0496 41.216 0z" fill="#FACF5D" /><path d="M611.4304 321.28l-45.3632-6.4512a22.9888 22.9888 0 0 1-17.3056-12.288l-20.2752-40.1408c-4.0448-8.0384-11.776-12.1344-19.6608-12.4416l-6.8096 4.1472s4.0448 0.9728 13.9776 21.0944 14.6944 34.304 19.6096 40.704 11.9808 17.7152 29.6448 20.5824c13.824 2.2528 25.1392 3.4304 29.5424 4.0448 6.144 0.8704 20.7872-0.3072 5.7344 12.4416-15.0528 12.7488-22.5792 19.5072-29.44 27.136-6.8608 7.6288-12.7488 18.4832-8.192 39.2704 4.5568 20.736 6.1952 28.7232 7.5264 32.5632s1.3312 9.5744-15.0528 0c-16.3328-9.5744-32.6656-21.7088-44.5952-20.736-11.9296 0.9728-13.9264 0.9728-29.2864 8.6016-15.36 7.68-27.4432 14.2848-33.6384 17.3568-6.1952 3.072-17.9712 1.28-16.3328-15.2576-2.6112 2.9696-5.4784 11.3664-8.0896 21.0432 2.7648 13.9264 18.9952 22.784 33.1776 15.5136l40.6016-20.8384c6.7072-3.4304 14.6944-3.4304 21.3504 0l40.6016 20.8384c16.8448 8.6528 36.5568-5.3248 33.3312-23.6544l-7.7312-44.1344c-1.28-7.2704 1.1776-14.6944 6.6048-19.8656l32.8192-31.2832c13.6192-12.9536 6.0928-35.584-12.7488-38.2464z" fill="#F8B031" /><path d="M452.2496 491.52c-6.8608 0-13.6704-2.1504-19.456-6.4-10.2912-7.4752-15.36-19.9168-13.2096-32.4608l7.7312-45.2096a12.7488 12.7488 0 0 0-3.6352-11.264l-32.8704-32a33.00352 33.00352 0 0 1-8.3968-34.048 32.93696 32.93696 0 0 1 26.8288-22.5792l45.3632-6.6048c4.1472-0.6144 7.7312-3.2256 9.5744-6.9632l20.2752-41.1136c5.632-11.4176 17.0496-18.5344 29.7472-18.5344s24.1152 7.0656 29.7984 18.5344l20.2752 41.1136c1.8432 3.7376 5.4272 6.3488 9.5744 6.9632l45.3632 6.6048c12.5952 1.8432 22.8864 10.496 26.7776 22.5792a33.024 33.024 0 0 1-8.3968 34.048l-32.8704 32c-3.0208 2.9184-4.352 7.1168-3.6352 11.264l7.7312 45.2096c2.1504 12.544-2.9184 24.9856-13.2096 32.4608a32.98304 32.98304 0 0 1-34.9696 2.5088l-40.6016-21.3504c-3.7376-1.9456-8.1408-1.9456-11.8272 0l-40.6016 21.3504c-4.7616 2.6112-10.0864 3.8912-15.36 3.8912z m62.0032-236.6976c-4.9664 0-9.216 2.6624-11.4176 7.0656l-20.3264 41.1136a33.25952 33.25952 0 0 1-24.9856 18.176l-45.3632 6.6048c-4.9152 0.7168-8.7552 3.9424-10.2912 8.6528s-0.3072 9.5744 3.2256 13.056l32.8704 32a33.36704 33.36704 0 0 1 9.5744 29.3888l-7.7312 45.2096c-0.8192 4.864 1.0752 9.5232 5.0688 12.4416 3.9936 2.9184 9.0112 3.2768 13.4144 0.9728l40.6016-21.3504c9.6768-5.0688 21.248-5.12 30.9248 0l40.6016 21.3504c4.4032 2.304 9.3696 1.9456 13.4144-0.9728 3.9936-2.9184 5.888-7.5776 5.0688-12.4416l-7.7312-45.2096a33.2288 33.2288 0 0 1 9.5744-29.3888l32.8704-32c3.5328-3.4304 4.7616-8.3456 3.2256-13.056s-5.376-7.936-10.2912-8.6528l-45.4144-6.6048a33.13664 33.13664 0 0 1-24.9856-18.176l-20.2752-41.1136c-2.4064-4.4032-6.7072-7.0656-11.6224-7.0656z" fill="#4B2254" /></svg>