<svg version="1.1" xmlns="http://www.w3.org/2000/svg" viewBox="0 0 1075 1075"><path d="M830.536 602.504l47.832-47.84H597.336a42.672 42.672 0 1 1 0-85.336h281.032l-47.832-47.832a42.64 42.64 0 0 1-0.208-60.336 42.656 42.656 0 0 1 60.336-0.224l0.208 0.224 120.68 120.672c2.472 2.464 3.816 5.512 5.544 8.376 1.136 1.832 2.72 3.36 3.56 5.384a42.824 42.824 0 0 1 0 32.824c-0.84 2.024-2.432 3.536-3.56 5.4-1.736 2.848-3.08 5.896-5.544 8.36l-120.68 120.688a42.688 42.688 0 0 1-60.336-0.2 42.712 42.712 0 0 1 0-60.16zM732.76 234.672H170.664V320h562.096V234.672zM170.664 554.664h298.672V469.328H170.664v85.336z m0 234.672h562.096V704H170.664v85.336zM1024 0H0v1024h1024V789.336h-85.336v149.328H85.336V85.328h853.328v149.344H1024V0z" fill="#17A29E" /></svg>