<svg class="svg-icon" style="width: 1em;height: 1em;vertical-align: middle;fill: currentColor;overflow: hidden;" viewBox="0 0 1024 1024" version="1.1" xmlns="http://www.w3.org/2000/svg"><path d="M658.085077 442.146764l-308.074864 276.892435c-29.167692 26.212467-75.715616 24.991922-103.445405-2.762947-27.729789-27.721429-28.879275-74.194115-2.56231-103.265667l277.958323-306.971357" fill="#F0F0FF" /><path d="M299.838272 758.782165c-24.837264 0-49.645268-9.304569-68.057948-27.733969-35.546296-35.537936-37.017638-94.784549-3.272901-132.065524l277.962503-306.975537 30.98597 28.055825-277.958323 306.975537c-18.705277 20.657313-17.856747 54.757347 1.843358 74.453272 19.733545 19.754444 53.933896 20.661493 74.699889 2.002196l308.074863-276.892436 27.947147 31.090469L363.979606 734.584434c-17.994685 16.176407-41.08055 24.197731-64.141334 24.197731z" fill="#6E6E96" /><path d="M283.578266 726.007176c-24.837264 0-49.645268-9.304569-68.062128-27.733969l29.573147-29.543887c19.725185 19.750264 53.925536 20.661493 74.691529 1.993836l308.070683-276.892436 27.947147 31.090469-308.079044 276.888256c-17.994685 16.176407-41.08055 24.197731-64.141334 24.197731z" fill="#6E6E96" opacity=".15" /><path d="M717.32333 246.784255m-204.984754 0a204.984754 204.984754 0 1 0 409.969508 0 204.984754 204.984754 0 1 0-409.969508 0Z" fill="#E69898" /><path d="M875.091367 1003.08771H203.319044c-54.723907 0-120.399283-17.401132-122.505978-100.306263-1.517322-59.823446 56.295568-106.918944 58.761738-108.891881l26.158128 32.599431-13.079064-16.297625 13.116684 16.272545c-12.284873 9.956641-43.989795 42.886288-43.170525 75.260002 0.785831 30.935811 11.106127 59.568469 80.719017 59.568469h671.772323v41.795322z" fill="#6E6E96" /><path d="M768.463178 342.968865a136.61749 144.342037 58.916 1 0-141.069633-234.001523 136.61749 144.342037 58.916 1 0 141.069633 234.001523Z" fill="#FFFFFF" opacity=".19" /><path d="M711.425279 264.357378a74.256814 78.445124 58.916 1 0-76.676723-127.188748 74.256814 78.445124 58.916 1 0 76.676723 127.188748Z" fill="#FFFFFF" opacity=".19" /><path d="M717.32333 62.699252c101.501729 0 184.085003 82.579095 184.085003 184.085003s-82.583274 184.085003-184.085003 184.085003c-101.505909 0-184.085003-82.579095-184.085003-184.085003S615.817421 62.699252 717.32333 62.699252z m-225.884505 184.085003c0 124.554154 101.326171 225.884504 225.884505 225.884504 124.554154 0 225.884504-101.330351 225.884504-225.884504S841.877483 20.899751 717.32333 20.899751c-124.558334 0-225.884504 101.330351-225.884505 225.884504z" fill="#6E6E96" /><path d="M584.91087 85.872895l289.135509 289.13551-29.556427 29.552247-289.135509-289.12715zM461.844779 512.00209a20.899751 20.899751 0 0 1-14.776124-35.675874l44.583348-44.587528a20.899751 20.899751 0 1 1 29.560607 29.556427l-44.587528 44.587528a20.837051 20.837051 0 0 1-14.780303 6.119447z" fill="#6E6E96" /></svg>