<svg class="svg-icon" style="width: 1em; height: 1em;vertical-align: middle;fill: currentColor;overflow: hidden;" viewBox="0 0 1024 1024" version="1.1" xmlns="http://www.w3.org/2000/svg"><path d="M352 1024H32a16 16 0 0 1-16-16V608c0-17.648 14.352-32 32-32h288c17.648 0 32 14.352 32 32v400a16 16 0 0 1-16 16zM48 992h288V608H48v384z" fill="#1D1D1D" /><path d="M672 1024H352a16 16 0 0 1-16-16V448c0-17.648 14.352-32 32-32h288c17.648 0 32 14.352 32 32v560a16 16 0 0 1-16 16z m-304-32h288V448H368v544z" fill="#1D1D1D" /><path d="M992 1024H672a16 16 0 0 1-16-16V720c0-17.648 14.352-32 32-32h288c17.648 0 32 14.352 32 32v288a16 16 0 0 1-16 16z m-304-32h288V720H688v272zM672 528H352a16 16 0 1 1 0-32h320a16 16 0 1 1 0 32zM352 688H32a16 16 0 1 1 0-32h320a16 16 0 1 1 0 32z" fill="#1D1D1D" /><path d="M992 800H672a16 16 0 1 1 0-32h320a16 16 0 1 1 0 32zM592.32 448H432a16 16 0 0 1-15.52-19.888l16-64A16 16 0 0 1 448 352h128a16 16 0 0 1 15.52 12.112l15.264 61.024A16 16 0 0 1 592.32 448z m-139.824-32h119.008l-8-32H460.48l-8 32z" fill="#1D1D1D" /><path d="M544 384h-64a16 16 0 0 1-16-16v-96a16 16 0 0 1 16-16h64a16 16 0 0 1 16 16v96a16 16 0 0 1-16 16z m-48-32h32v-64h-32v64z" fill="#1D1D1D" /><path d="M512 288c-70.576 0-128-57.424-128-128V16a16 16 0 0 1 16-16h224a16 16 0 0 1 16 16v144c0 70.576-57.424 128-128 128zM416 32v128c0 52.944 43.056 96 96 96s96-43.056 96-96V32H416z" fill="#1D1D1D" /><path d="M545.92 209.92a16 16 0 0 1-11.312-27.328c6.064-6.032 9.392-14.064 9.392-22.592V120a16 16 0 1 1 32 0V160a63.584 63.584 0 0 1-18.768 45.248 15.968 15.968 0 0 1-11.312 4.688zM404.64 208H352a16 16 0 0 1-15.84-13.728l-16-112A16.032 16.032 0 0 1 336 64h64a16 16 0 1 1 0 32h-45.552l11.424 80h38.768a16 16 0 1 1 0 32zM672 208h-52.64a16 16 0 1 1 0-32h38.768l11.424-80H624a16 16 0 1 1 0-32h64a16.032 16.032 0 0 1 15.84 18.272l-16 112A16 16 0 0 1 672 208zM544 960c-4.16 0-8.32-1.76-11.36-4.64-2.88-3.04-4.64-7.2-4.64-11.36 0-4.16 1.76-8.32 4.64-11.36 5.92-5.92 16.8-5.92 22.72 0 2.88 3.04 4.64 7.2 4.64 11.36 0 4.16-1.76 8.32-4.8 11.36-2.88 2.88-6.88 4.64-11.2 4.64zM608 960c-4.16 0-8.32-1.76-11.36-4.64A16.48 16.48 0 0 1 592 944c0-4.16 1.76-8.32 4.64-11.36 5.92-5.92 16.8-5.92 22.72 0 2.88 3.04 4.64 7.2 4.64 11.36 0 4.16-1.76 8.32-4.64 11.36-3.04 2.88-7.2 4.64-11.36 4.64zM480 960c-4.32 0-8.48-1.76-11.36-4.64A16.48 16.48 0 0 1 464 944c0-4.16 1.76-8.32 4.64-11.36 5.76-5.92 16.64-5.92 22.72 0 2.88 3.04 4.64 7.2 4.64 11.36 0 4.32-1.76 8.32-4.64 11.36-3.04 2.88-7.2 4.64-11.36 4.64zM416 960c-4.16 0-8.32-1.76-11.36-4.64-2.88-3.04-4.64-7.2-4.64-11.36 0-4.16 1.76-8.32 4.64-11.36 6.08-5.92 16.8-5.92 22.72 0 2.88 3.04 4.64 7.2 4.64 11.36 0 4.16-1.76 8.32-4.64 11.36-3.04 2.88-7.2 4.64-11.36 4.64zM544 896c-4.16 0-8.32-1.76-11.36-4.64-2.88-3.04-4.64-7.2-4.64-11.36 0-4.16 1.76-8.32 4.64-11.36 5.92-5.92 16.8-5.92 22.72 0 2.88 3.04 4.64 7.2 4.64 11.36 0 4.16-1.76 8.32-4.64 11.36-3.04 2.88-7.04 4.64-11.36 4.64zM608 896c-4.16 0-8.32-1.76-11.36-4.64A16.48 16.48 0 0 1 592 880c0-4.16 1.76-8.32 4.64-11.36 5.92-5.92 16.8-5.92 22.72 0 2.88 3.04 4.64 7.2 4.64 11.36 0 4.16-1.76 8.32-4.64 11.36-3.04 2.88-7.04 4.64-11.36 4.64zM480 896c-4.32 0-8.32-1.76-11.36-4.64-2.88-3.04-4.64-7.2-4.64-11.36 0-4.32 1.76-8.32 4.64-11.36 5.76-5.76 16.64-5.92 22.72 0 2.88 3.04 4.64 7.04 4.64 11.36 0 4.16-1.76 8.32-4.64 11.36-3.04 2.88-7.2 4.64-11.36 4.64zM416 896c-4.16 0-8.32-1.76-11.36-4.64-2.88-3.04-4.64-7.2-4.64-11.36 0-4.16 1.76-8.32 4.64-11.36 6.08-5.92 16.8-5.92 22.72 0 2.88 3.04 4.64 7.2 4.64 11.36 0 4.16-1.76 8.32-4.64 11.36-3.04 2.88-7.2 4.64-11.36 4.64zM864 960c-4.16 0-8.32-1.76-11.36-4.64a16.192 16.192 0 0 1 0-22.72c6.08-5.92 16.8-5.92 22.72 0 2.88 3.04 4.64 7.2 4.64 11.36 0 4.16-1.76 8.32-4.64 11.36-3.04 2.88-7.2 4.64-11.36 4.64zM928 960c-4.32 0-8.32-1.76-11.36-4.64-2.88-3.04-4.64-7.2-4.64-11.36 0-4.16 1.76-8.32 4.64-11.36 5.92-5.92 16.64-5.92 22.72 0 3.04 3.04 4.64 7.2 4.64 11.36 0 4.16-1.6 8.32-4.64 11.36-3.04 2.88-7.2 4.64-11.36 4.64zM800 960c-4.16 0-8.32-1.76-11.36-4.64-2.88-3.04-4.64-7.2-4.64-11.36 0-4.16 1.76-8.32 4.64-11.36 6.08-5.92 16.8-5.92 22.72 0 2.88 3.04 4.64 7.2 4.64 11.36 0 4.16-1.76 8.32-4.64 11.36-3.04 2.88-7.2 4.64-11.36 4.64zM736 960c-4.16 0-8.32-1.76-11.36-4.64A16.48 16.48 0 0 1 720 944c0-4.16 1.76-8.32 4.64-11.36 6.08-5.92 16.8-5.92 22.72 0 2.88 3.04 4.64 7.2 4.64 11.36 0 4.32-1.76 8.32-4.64 11.36-3.04 2.88-7.2 4.64-11.36 4.64zM224 960c-4.16 0-8.32-1.76-11.36-4.64-2.88-3.04-4.64-7.2-4.64-11.36 0-4.16 1.76-8.32 4.64-11.36 5.92-5.92 16.8-5.92 22.72 0 2.88 3.04 4.64 7.2 4.64 11.36 0 4.16-1.76 8.32-4.64 11.36-3.04 2.88-7.2 4.64-11.36 4.64zM288 960c-4.16 0-8.32-1.76-11.36-4.64-2.88-3.04-4.64-7.2-4.64-11.36 0-4.16 1.76-8.32 4.64-11.36 5.92-5.92 16.64-5.92 22.72 0 2.88 3.04 4.64 7.2 4.64 11.36 0 4.16-1.76 8.32-4.64 11.36-3.04 2.88-7.2 4.64-11.36 4.64zM160 960c-4.16 0-8.32-1.76-11.36-4.64-2.88-3.04-4.64-7.2-4.64-11.36 0-4.16 1.76-8.32 4.64-11.36 5.92-5.92 16.8-5.92 22.72 0 2.88 3.04 4.64 7.2 4.64 11.36 0 4.16-1.76 8.32-4.64 11.36-3.04 2.88-7.2 4.64-11.36 4.64zM96 960c-4.16 0-8.32-1.76-11.36-4.64-2.88-3.04-4.64-7.2-4.64-11.36 0-4.16 1.76-8.32 4.64-11.36 6.08-5.92 16.64-5.92 22.72 0 2.88 3.04 4.64 7.2 4.64 11.36 0 4.16-1.76 8.32-4.64 11.36-3.04 2.88-7.2 4.64-11.36 4.64zM224 896c-4.32 0-8.32-1.76-11.36-4.64-2.88-3.04-4.64-7.2-4.64-11.36 0-4.16 1.76-8.32 4.64-11.36 5.92-5.92 16.8-5.92 22.72 0 2.88 3.04 4.64 7.2 4.64 11.36 0 4.16-1.76 8.32-4.64 11.36-3.04 2.88-7.2 4.64-11.36 4.64zM288 896c-4.16 0-8.32-1.76-11.36-4.64-2.88-3.04-4.64-7.2-4.64-11.36 0-4.16 1.76-8.32 4.64-11.36 5.92-5.92 16.8-5.92 22.72 0 2.88 3.04 4.64 7.2 4.64 11.36 0 4.16-1.76 8.32-4.64 11.36-3.04 2.88-7.2 4.64-11.36 4.64zM160 896c-4.32 0-8.32-1.76-11.36-4.64-2.88-3.04-4.64-7.2-4.64-11.36 0-4.16 1.76-8.32 4.64-11.36 5.92-5.92 16.8-5.92 22.72 0 2.88 3.04 4.64 7.2 4.64 11.36 0 4.16-1.76 8.32-4.64 11.36-3.04 2.88-7.2 4.64-11.36 4.64z" fill="#1D1D1D" /><path d="M96 896c-4.32 0-8.32-1.76-11.36-4.64-2.88-3.04-4.64-7.2-4.64-11.36 0-4.16 1.76-8.32 4.64-11.36 5.92-5.92 16.8-5.92 22.72 0 2.88 3.04 4.64 7.2 4.64 11.36 0 4.16-1.76 8.32-4.64 11.36-3.04 2.88-7.04 4.64-11.36 4.64z" fill="#1D1D1D" /><path d="M544 832c-4.16 0-8.32-1.76-11.36-4.64A16.48 16.48 0 0 1 528 816c0-4.16 1.76-8.32 4.64-11.36 6.08-5.92 16.8-5.92 22.72 0 2.88 3.04 4.64 7.2 4.64 11.36 0 4.16-1.76 8.32-4.8 11.36-2.88 2.88-7.04 4.64-11.2 4.64z" fill="#1D1D1D" /><path d="M608 832c-4.16 0-8.32-1.76-11.36-4.64-2.88-3.04-4.64-7.2-4.64-11.36 0-4.16 1.76-8.32 4.64-11.36 5.92-5.92 16.8-5.92 22.72 0 2.88 3.04 4.64 7.2 4.64 11.36 0 4.16-1.76 8.32-4.64 11.36-3.04 2.88-7.2 4.64-11.36 4.64z" fill="#1D1D1D" /><path d="M480 832c-4.32 0-8.32-1.76-11.36-4.64-2.88-3.04-4.64-7.2-4.64-11.36 0-4.16 1.76-8.32 4.64-11.36 5.76-5.92 16.64-5.92 22.72 0 2.88 3.04 4.64 7.2 4.64 11.36 0 4.16-1.76 8.32-4.64 11.36-3.04 2.88-7.2 4.64-11.36 4.64z" fill="#1D1D1D" /><path d="M416 832c-4.16 0-8.32-1.76-11.36-4.64-2.88-3.04-4.64-7.2-4.64-11.36 0-4.16 1.76-8.32 4.64-11.36 5.92-5.92 16.8-5.92 22.72 0 2.88 3.04 4.64 7.2 4.64 11.36 0 4.16-1.76 8.32-4.64 11.36-3.04 2.88-7.2 4.64-11.36 4.64z" fill="#1D1D1D" /></svg>