<svg class="svg-icon" style="width: 1em; height: 1em;vertical-align: middle;fill: currentColor;overflow: hidden;" viewBox="0 0 1024 1024" version="1.1" xmlns="http://www.w3.org/2000/svg"><path d="M1014 1014H10.002l92.788-599.346h818.422z" fill="#6770E6" /><path d="M691.286 756.338c-158.598 0-179.284-108.508-179.284-108.508s-20.688 108.508-179.284 108.508c0 0-13.922 187.22-137.93 257.662H829.214c-124.006-70.444-137.928-257.662-137.928-257.662z" fill="#333399" /><path d="M16.08 974.78h228.018c-14.118 15.08-30.434 28.492-49.318 39.218H10l6.08-39.218zM1014 1014h-184.78c-18.884-10.726-35.2-24.138-49.318-39.218H1007.92L1014 1014z" fill="#5A62C9" /><path d="M512 79.358S420.818 319.216 10.002 414.654H1014C603.184 319.218 512 79.358 512 79.358z" fill="#FF8354" /><path d="M512 99.358s79.894 210.138 427.002 315.296H1014C603.184 319.218 512 79.358 512 79.358S420.818 319.218 10 414.654h75C432.106 309.496 512 99.358 512 99.358z" fill="#FFAC8C" /><path d="M81.716 577.234c-39.606 0-71.714-32.108-71.714-71.714v-90.866h143.428v90.866c0 39.608-32.108 71.714-71.714 71.714z" fill="#FF8354" /><path d="M225.144 577.234c-39.606 0-71.714-32.108-71.714-71.714v-90.866h143.428v90.866c0 39.608-32.108 71.714-71.714 71.714z" fill="#FFEFE4" /><path d="M368.572 577.234c-39.606 0-71.714-32.108-71.714-71.714v-90.866h143.428v90.866c0 39.608-32.106 71.714-71.714 71.714z" fill="#FF8354" /><path d="M512 577.234c-39.606 0-71.714-32.108-71.714-71.714v-90.866h143.428v90.866c0.002 39.608-32.106 71.714-71.714 71.714z" fill="#FFEFE4" /><path d="M655.43 577.234c-39.606 0-71.714-32.108-71.714-71.714v-90.866h143.428v90.866c0 39.608-32.108 71.714-71.714 71.714z" fill="#FF8354" /><path d="M798.858 577.234c-39.606 0-71.714-32.108-71.714-71.714v-90.866h143.428v90.866c0 39.608-32.108 71.714-71.714 71.714z" fill="#FFEFE4" /><path d="M942.286 577.234c-39.606 0-71.714-32.108-71.714-71.714v-90.866H1014v90.866c0 39.608-32.108 71.714-71.714 71.714z" fill="#FF8354" /><path d="M512 79.358c0 145.24-71.714 335.296-71.714 335.296h143.428S512 224.598 512 79.358z" fill="#FFEFE4" /><path d="M512 79.358c0 98.966-204.732 270.85-358.57 335.296h143.428S512.002 197.714 512 79.358zM512.002 79.358c0 98.966 204.732 270.85 358.57 335.296h-143.428S512 197.714 512.002 79.358z" fill="#FFEFE4" /><path d="M334.946 974.78c-11.472 15.022-26.296 28.532-45.316 39.218H194.78c18.884-10.726 35.2-24.138 49.318-39.218h90.848z" fill="#6770E6" /><path d="M368.576 793.962s21.924 108.244-33.63 180.818h-90.85c78.614-83.87 88.614-218.448 88.614-218.448 157.346 0 178.956-106.772 179.288-108.478-0.018 0.608-4.254 109.812-143.422 146.108z" fill="#8F95E6" /><path d="M829.22 1014h-94.85c-19.02-10.686-33.846-24.198-45.316-39.218h90.85c14.116 15.078 30.432 28.492 49.316 39.218z" fill="#6770E6" /><path d="M779.902 974.78h-90.85c-55.534-72.574-33.63-180.818-33.63-180.818-139.168-36.296-143.404-145.5-143.424-146.108 0.334 1.706 21.942 108.478 179.288 108.478 0.002 0 10.002 134.58 88.616 218.448z" fill="#8F95E6" /><path d="M515.408 111.296h-6.816a8.23 8.23 0 0 1-8.226-8.526l3.408-94.834a8.232 8.232 0 0 1 16.452 0l3.408 94.834a8.23 8.23 0 0 1-8.226 8.526z" fill="#6770E6" /><path d="M520.276 9.326l2.262 62.908L662 41.032z" fill="#D476E2" /></svg>