<svg class="svg-icon" style="width: 1em; height: 1em;vertical-align: middle;fill: currentColor;overflow: hidden;" viewBox="0 0 1024 1024" version="1.1" xmlns="http://www.w3.org/2000/svg"><path d="M168.310817 234.208575a155.409876 155.409876 0 0 1-38.430745 4.797313c-35.62941 0-69.878831-12.348075-97.230481-34.171062v39.255692c29.726364 18.296831 62.395545 27.564961 97.230481 27.564961 35.857957 0 70.187914-9.905886 100.145002-28.76429C202.399167 194.319481 187.822213 139.415929 187.822213 83.093209c0-16.747063 1.316867-33.472361 3.874418-49.953874H32.649591v125.533323c23.327044 29.928792 59.28295 47.683639 97.230481 47.683639 10.319447 0 20.530063-1.271157 30.35106-3.780822a16.326972 16.326972 0 0 1 19.857481 11.777795 16.322619 16.322619 0 0 1-11.777796 19.855305zM149.51336 171.55401a90.569965 90.569965 0 0 1-19.633288 2.152696 90.578671 90.578671 0 0 1-59.504967-22.323613 16.326972 16.326972 0 0 1 21.452957-24.613438 57.913844 57.913844 0 0 0 38.049834 14.287461c4.227034 0 8.445361-0.461448 12.537443-1.37346a16.322619 16.322619 0 0 1 19.483099 12.387255 16.322619 16.322619 0 0 1-12.385078 19.483099zM862.761084 202.573298a123.088957 123.088957 0 0 0 30.381533 3.782999c38.269674 0 74.506366-18.061754 97.81382-48.451993l-0.515863-124.764969h-159.121046a326.711395 326.711395 0 0 1 3.857005 49.953874c0 56.337957-14.566071 111.239333-42.181095 159.795804 29.959265 18.858404 64.287044 28.766466 100.147179 28.766466 34.882823 0 68.664266-9.505384 98.172966-27.558431l-0.165425-39.873857c-27.477896 22.210428-62.040752 34.782697-98.007541 34.782697a155.695015 155.695015 0 0 1-38.445982-4.795137 16.324795 16.324795 0 1 1 8.064449-31.637453z m-1.641186-50.502387c1.958975-8.800153 10.685123-14.3397 19.483099-12.387255 4.092082 0.909835 8.310409 1.373459 12.53962 1.37346a57.913844 57.913844 0 0 0 38.049833-14.287461 16.324795 16.324795 0 0 1 23.031021 1.58024 16.324795 16.324795 0 0 1-1.58024 23.033198 90.561258 90.561258 0 0 1-59.502791 22.323613 90.591731 90.591731 0 0 1-19.635464-2.152696 16.324795 16.324795 0 0 1-12.385078-19.483099z" fill="#BD1515" /><path d="M80.187395 957.804043V547.087427a16.324795 16.324795 0 0 1 32.649591 0v410.716616c16.013536 3.650224 26.047844 12.324132 34.473614 19.64417 4.688481 4.072492 8.575959 7.444107 13.062013 9.790524V349.252673a16.324795 16.324795 0 0 1 32.649591 0v637.979534c4.477347-2.346417 8.360472-5.713678 13.040247-9.77964 8.427948-7.322215 18.460079-15.9983 34.475791-19.646347V354.890169a16.324795 16.324795 0 0 1 32.649591 0v602.916051c16.015713 3.650224 26.05002 12.326309 34.475791 19.646347 4.679775 4.068139 8.560723 7.437577 13.040247 9.783994V344.607725c-28.405144-20.75861-52.938047-45.628891-73.17644-74.160281-35.191906 22.195192-75.525033 33.857626-117.651712 33.857626-33.879392 0-66.992607-7.899024-97.230481-22.970076v705.90592c4.48823-2.346417 8.375708-5.720208 13.062013-9.794877 8.434478-7.317862 18.466609-15.99177 34.480144-19.641994z m0-606.614161a16.324795 16.324795 0 0 1 32.649591 0v130.598363a16.324795 16.324795 0 0 1-32.649591 0v-130.598363zM893.142617 304.30507c-42.126679 0-82.461983-11.66461-117.656066-33.861979-20.255806 28.542272-44.799592 53.414731-73.191676 74.164634v642.633189c4.490407-2.346417 8.375708-5.720208 13.06419-9.794877 8.427948-7.320038 18.460079-15.993946 34.473614-19.644171V354.890169c0-9.01564 7.306978-16.324795 16.324796-16.324795s16.324795 7.309155 16.324795 16.324795v602.913874c16.017889 3.650224 26.05002 12.326309 34.477968 19.648524 4.679775 4.065962 8.560723 7.4354 13.03807 9.77964v-110.64511c0-9.01564 7.306978-16.324795 16.324795-16.324795s16.324795 7.309155 16.324796 16.324795v110.649464c4.48823-2.346417 8.375708-5.718032 13.064189-9.790524 8.427948-7.320038 18.460079-15.993946 34.473615-19.644171V351.189882c0-9.01564 7.306978-16.324795 16.324795-16.324795s16.324795 7.309155 16.324796 16.324795v606.614161c16.013536 3.650224 26.047844 12.324132 34.475791 19.64417 4.688481 4.072492 8.573783 7.44846 13.06419 9.794878v-705.448826c-30.105099 14.768498-63.220491 22.510805-97.232658 22.510805z m-30.496895 506.982846c0 9.01564-7.306978 16.324795-16.324795 16.324795s-16.324795-7.309155-16.324796-16.324795v-462.035243c0-9.01564 7.306978-16.324795 16.324796-16.324795s16.324795 7.309155 16.324795 16.324795v462.035243zM677.254816 322.360293c32.172907-22.360616 59.121879-50.426205 80.082916-83.424057C786.900848 192.410569 802.526942 138.521331 802.526942 83.093209c0-16.814539-1.456172-33.559426-4.287979-49.953874H224.78155a293.195502 293.195502 0 0 0-4.30757 49.953874c0 55.406356 15.632624 109.293417 45.2088 155.84085 20.941448 32.997853 47.886067 61.059088 80.082917 83.437118 0.330849 0.208957 0.648639 0.430975 0.962074 0.663875 48.580414 33.420121 105.551774 51.09661 164.784662 51.096609 59.208945 0 116.160714-17.667782 164.747658-51.08355 0.322143-0.241607 0.652992-0.470154 0.994725-0.687818zM753.552556 66.768413a16.324795 16.324795 0 0 1 16.324795 16.324796c0 56.949593-18.251121 111.004256-52.779151 156.319711a16.303029 16.303029 0 0 1-12.998891 6.431969 16.326972 16.326972 0 0 1-12.972771-26.219798c30.157339-39.582187 46.101222-86.793496 46.101223-136.534059a16.324795 16.324795 0 0 1 16.324795-16.322619z m-418.807185 0a16.324795 16.324795 0 0 1 16.324796 16.324796c0 32.434104 9.694752 63.716765 28.032939 90.465486a16.324795 16.324795 0 0 1-26.92503 18.464432c-22.084183-32.207733-33.755324-69.876654-33.755323-108.927742a16.322619 16.322619 0 0 1 16.322618-16.326972z m160.292078 258.371449a16.329149 16.329149 0 0 1-18.36866 13.984908c-127.442236-17.262927-223.547395-127.331228-223.547395-256.031561a16.324795 16.324795 0 0 1 32.649591 0c0 112.438661 83.952981 208.598236 195.281556 223.677993a16.324795 16.324795 0 0 1 13.984908 18.36866z m-92.454934-82.712297a16.324795 16.324795 0 0 1-4.231387-22.695819 16.324795 16.324795 0 0 1 22.695819-4.231387c26.748721 18.340363 58.031383 28.032939 90.465486 28.032939 88.454271 0 160.418323-71.972758 160.418323-160.440089 0-9.01564 7.306978-16.324795 16.324795-16.324796s16.324795 7.309155 16.324795 16.324796c0 106.470316-86.608481 193.08968-193.067913 193.08968-39.055441 0-76.722185-11.673317-108.929918-33.755324z m265.256159 46.253587c-35.472692 27.040391-77.481832 44.483979-121.484775 50.441441a16.329149 16.329149 0 0 1-18.370836-13.987084 16.324795 16.324795 0 0 1 13.987085-18.366484c38.411155-5.202168 75.091882-20.436467 106.074167-44.055181a16.329149 16.329149 0 0 1 19.794359 25.967308z" fill="#F2484B" /><path d="M142.417515 139.683656c-4.092082 0.909835-8.310409 1.373459-12.537443 1.37346a57.913844 57.913844 0 0 1-38.049833-14.287461 16.324795 16.324795 0 0 0-21.452958 24.613438 90.567788 90.567788 0 0 0 59.504968 22.323613 90.569965 90.569965 0 0 0 19.633287-2.152696 16.324795 16.324795 0 1 0-7.098021-31.870354z" fill="#082947" /><path d="M1024 252.912437L1023.020512 16.747063a16.324795 16.324795 0 0 0-16.324795-16.257319H16.324795a16.324795 16.324795 0 0 0-16.324795 16.324795v990.370922a16.324795 16.324795 0 0 0 16.324795 16.324795c26.145792 0 39.815088-11.873568 50.79841-21.413778 9.298603-8.075332 15.44108-13.412452 29.388985-13.412452 13.945729 0 20.088205 5.33712 29.386809 13.412452 10.983322 9.54021 24.652618 21.413778 50.79841 21.413778 26.134909 0 39.799851-11.871391 50.77882-21.411602 9.296427-8.077509 15.438903-13.414629 29.386809-13.414628s20.090382 5.33712 29.386808 13.414628c10.978969 9.54021 24.643911 21.411602 50.77882 21.411602a16.324795 16.324795 0 0 0 16.324796-16.324795V365.538289c48.147263 27.027331 102.236752 41.242963 158.154617 41.242963 55.900453 0 109.983412-14.213455 158.132852-41.242963v641.647172a16.324795 16.324795 0 0 0 16.324795 16.324795c26.147969 0 39.815088-11.873568 50.79841-21.413778 9.298603-8.075332 15.443256-13.412452 29.388985-13.412452 13.947905 0 20.090382 5.33712 29.386809 13.414628 10.981146 9.54021 24.643911 21.411602 50.77882 21.411602 26.147969 0 39.815088-11.873568 50.79841-21.413778 9.298603-8.075332 15.443256-13.412452 29.388985-13.412452 13.947905 0 20.090382 5.33712 29.391162 13.414628 10.983322 9.54021 24.650441 21.411602 50.79841 21.411602a16.324795 16.324795 0 0 0 16.324795-16.324795V258.49334a16.322619 16.322619 0 0 0 0.979488-5.580903z m-169.305542-18.701686a155.799494 155.799494 0 0 0 38.445982 4.795137c35.964613 0 70.529646-12.572269 98.007542-34.782697l0.165424 39.873857c-29.5087 18.053047-63.287967 27.558431-98.172966 27.558431-35.860134 0-70.187914-9.908062-100.147178-28.766466 27.615024-48.556471 42.183271-103.457847 42.183271-159.795804 0-16.78189-1.310337-33.507187-3.857005-49.953874h159.121046l0.515863 124.764969c-23.309631 30.390239-59.544147 48.451993-97.81382 48.451993-10.312917 0-20.536593-1.271157-30.381533-3.782999a16.324795 16.324795 0 0 0-8.066626 31.637453z m-674.605845-19.857481a16.324795 16.324795 0 0 0-19.857481-11.777795 122.779875 122.779875 0 0 1-30.35106 3.780822c-37.947531 0-73.903437-17.757024-97.230481-47.683639V33.139335h159.04704a326.030107 326.030107 0 0 0-3.874418 49.953874c0 56.320544 14.576954 111.226273 42.202861 159.79798-29.957088 18.858404-64.284868 28.76429-100.145002 28.76429-34.834937 0-67.504117-9.268131-97.230481-27.564961V204.834826c27.351651 21.825163 61.601071 34.171062 97.230481 34.171062 13.042423 0 25.971661-1.61289 38.430745-4.797313a16.322619 16.322619 0 0 0 11.777796-19.855305zM32.649591 281.334994c30.237874 15.071051 63.351089 22.970075 97.230481 22.970076 42.126679 0 82.45763-11.662434 117.651712-33.857626 20.236216 28.531389 44.771296 53.401671 73.17644 74.160281v642.626659c-4.479524-2.344241-8.358295-5.715855-13.040247-9.783994-8.427948-7.322215-18.460079-15.9983-34.475791-19.646347V354.890169a16.324795 16.324795 0 0 0-32.649591 0v602.916051c-16.015713 3.650224-26.05002 12.326309-34.475791 19.646347-4.679775 4.065962-8.560723 7.4354-13.040246 9.77964V349.252673a16.324795 16.324795 0 0 0-32.649591 0V987.236561c-4.48823-2.346417-8.375708-5.718032-13.062013-9.790524-8.427948-7.320038-18.460079-15.993946-34.473615-19.644171V547.087427a16.324795 16.324795 0 0 0-32.649591 0v410.716616c-16.013536 3.650224-26.047844 12.324132-34.475791 19.64417-4.688481 4.072492-8.573783 7.44846-13.062013 9.794878V281.334994z m314.076004 41.702234a16.063599 16.063599 0 0 0-0.962075-0.663875c-32.19685-22.37803-59.139292-50.439265-80.082916-83.437117-29.576176-46.547433-45.2088-100.436671-45.2088-155.840851 0-16.773183 1.462702-33.51807 4.307569-49.953874h573.457413a293.785371 293.785371 0 0 1 4.28798 49.953874c0 55.428122-15.626094 109.31736-45.189211 155.843027-20.961037 32.997853-47.91001 61.061265-80.082916 83.424058-0.341732 0.217664-0.672582 0.446211-0.996901 0.687818-48.586944 33.415768-105.538714 51.08355-164.747659 51.08355-59.230711-0.002177-116.20207-17.676488-164.782484-51.09661z m630.583313 654.410985c-8.427948-7.320038-18.460079-15.993946-34.475791-19.64417V351.189882c0-9.01564-7.306978-16.324795-16.324795-16.324795s-16.324795 7.309155-16.324796 16.324795v606.614161c-16.013536 3.650224-26.045667 12.324132-34.473614 19.64417-4.688481 4.072492-8.575959 7.444107-13.06419 9.790524v-110.649463c0-9.01564-7.306978-16.324795-16.324795-16.324795s-16.324795 7.309155-16.324796 16.324795v110.64511c-4.477347-2.346417-8.360472-5.713678-13.03807-9.779641-8.427948-7.322215-18.460079-15.9983-34.477967-19.648523V354.890169c0-9.01564-7.306978-16.324795-16.324796-16.324795s-16.324795 7.309155-16.324795 16.324795v602.913874c-16.013536 3.650224-26.045667 12.324132-34.473615 19.64417-4.688481 4.072492-8.573783 7.44846-13.06419 9.794878V344.609901c28.394261-20.749903 52.93587-45.622362 73.191677-74.164634 35.194082 22.197368 75.529387 33.861979 117.656065 33.861979 34.014344 0 67.127559-7.742306 97.230481-22.512981v705.448826c-4.48823-2.346417-8.373532-5.722385-13.062013-9.794878z" fill="#082947" /><path d="M873.507153 171.55401c6.41891 1.427875 13.022833 2.152696 19.635464 2.152696a90.572142 90.572142 0 0 0 59.502791-22.323613 16.324795 16.324795 0 0 0-21.450782-24.613438 57.913844 57.913844 0 0 1-38.049833 14.287461 57.746243 57.746243 0 0 1-12.539619-1.37346c-8.797976-1.952446-17.524124 3.587102-19.483099 12.387255a16.322619 16.322619 0 0 0 12.385078 19.483099zM96.51219 498.113041a16.324795 16.324795 0 0 0 16.324796-16.324796v-130.598363a16.324795 16.324795 0 0 0-32.649591 0v130.598363a16.324795 16.324795 0 0 0 16.324795 16.324796zM846.320927 332.927878a16.324795 16.324795 0 0 0-16.324796 16.324795v462.035243c0 9.01564 7.306978 16.324795 16.324796 16.324795s16.324795-7.309155 16.324795-16.324795v-462.035243a16.324795 16.324795 0 0 0-16.324795-16.324795zM365.655827 199.116795a16.324795 16.324795 0 0 0 13.447279-25.5581c-18.340363-26.748721-28.032939-58.031383-28.032939-90.465486a16.324795 16.324795 0 0 0-32.649591 0c0 39.053264 11.673317 76.720009 33.755324 108.927741a16.307382 16.307382 0 0 0 13.479927 7.095845zM704.57817 83.093209c0-9.01564-7.306978-16.324795-16.324796-16.324796s-16.324795 7.309155-16.324795 16.324796c0 88.467331-71.964051 160.440089-160.418323 160.440089-32.434104 0-63.716765-9.694752-90.465486-28.032939a16.324795 16.324795 0 1 0-18.464432 26.927206c32.207733 22.084183 69.876654 33.755324 108.927741 33.755324 106.461609 0 193.07009-86.619364 193.070091-193.08968z" fill="#082947" /><path d="M481.052541 306.771202C369.723966 291.691444 285.770985 195.531869 285.770985 83.093209a16.324795 16.324795 0 0 0-32.649591 0c0 128.700334 96.105159 238.768634 223.547395 256.031561a16.329149 16.329149 0 0 0 18.36866-13.984908 16.324795 16.324795 0 0 0-13.984908-18.36866zM694.217366 242.505924a16.248613 16.248613 0 0 0 9.881943 3.341142 16.303029 16.303029 0 0 0 12.998891-6.43197c34.528031-45.317632 52.779152-99.372295 52.779151-156.321887 0-9.01564-7.306978-16.324795-16.324795-16.324796s-16.324795 7.309155-16.324795 16.324796c0 49.740563-15.941707 96.951872-46.101223 136.534059a16.326972 16.326972 0 0 0 3.090828 22.878656zM670.925148 265.802495a16.329149 16.329149 0 0 0-22.880833-3.086474c-30.982285 23.618714-67.663012 38.853013-106.074167 44.055181a16.326972 16.326972 0 0 0 2.170109 32.503756 16.259496 16.259496 0 0 0 2.213642-0.150188c44.005119-5.959639 86.014259-23.40105 121.484775-50.441441a16.326972 16.326972 0 0 0 3.086474-22.880834z" fill="#082947" /></svg>