<svg class="svg-icon" style="width: 1em;height: 1em;vertical-align: middle;fill: currentColor;overflow: hidden;" viewBox="0 0 1024 1024" version="1.1" xmlns="http://www.w3.org/2000/svg"><path d="M702.921143 732.909714c-1.645714-0.548571-3.291429-0.768-5.046857-0.768-6.820571 0-13.842286 4.187429-18.029715 8.466286-5.595429 7.04-7.021714 16.365714-3.620571 24.941714 3.181714 8.246857 10.331429 14.171429 18.578286 15.378286 37.686857 4.937143 76.251429 12.964571 121.197714 25.161143 77.238857 22.747429 99.766857 48.566857 101.083429 52.973714-1.097143 5.046857-22.418286 30.317714-101.193143 53.504-81.426286 25.051429-190.208 38.784-306.230857 38.784-117.906286 0-226.688-13.732571-306.340572-38.893714-77.238857-21.430857-98.121143-46.482286-99.218286-50.980572 1.097143-5.046857 22.528-30.317714 101.302858-53.504 32.859429-10.770286 71.972571-18.797714 122.843428-25.161142 8.356571-1.097143 15.268571-6.162286 18.779429-13.842286 3.84-8.356571 3.181714-18.340571-1.645715-26.038857-4.388571-6.912-11.538286-10.331429-22.198857-10.331429h-0.109714C157.805714 755.456 55.296 804.681143 55.296 861.257143c0 79.780571 200.429714 142.409143 456.210286 142.409143S967.606857 941.147429 967.606857 861.257143c0-56.484571-101.632-105.709714-264.685714-128.347429z m0 0" fill="#4167F7" /><path d="M720.822857 141.696l-123.264-72.832-184.868571-7.478857-143.798857 108.306286-54.162286 153.124571L261.412571 512l249.984 320.676571s147.785143-143.798857 151.533715-149.394285c3.730286-5.595429 130.724571-242.304 130.724571-242.304v-174.134857L720.822857 141.696zM511.396571 484.699429c-78.555429 0-140.196571-61.531429-140.196571-140.196572s61.531429-140.214857 140.196571-140.214857c78.683429 0 140.214857 61.531429 140.214858 140.214857s-61.659429 140.196571-140.214858 140.196572z" fill="#C2E5FF" /><path d="M511.396571 204.288c-78.665143 0-140.196571 61.531429-140.196571 140.214857s61.641143 140.196571 140.196571 140.196572c78.573714 0 140.214857-61.531429 140.214858-140.196572s-61.549714-140.214857-140.214858-140.214857z m0 226.450286c-48.329143 0-86.144-37.814857-86.144-86.144 0.109714-48.329143 37.906286-86.144 86.144-86.144 48.347429 0 86.144 37.814857 86.144 86.144 0 48.347429-37.796571 86.144-86.144 86.144z" fill="#4167F7" /><path d="M513.590857 888.502857c7.04 0 13.403429-3.072 17.810286-8.466286l3.84-4.498285c199.424-234.916571 300.635429-413.586286 300.635428-531.053715C835.876571 165.595429 690.395429 20.114286 511.506286 20.114286S187.136 165.613714 187.136 344.484571c0 173.056 234.806857 453.577143 306.779429 535.552 5.284571 5.394286 12.635429 8.466286 19.675428 8.466286z m-2.194286-805.266286c145.901714 0 264.649143 118.747429 264.649143 264.649143 0 82.377143-88.210286 239.835429-248.429714 443.190857-3.821714 4.882286-9.746286 7.643429-16.219429 7.643429-6.473143 0-12.397714-2.761143-16.219428-7.643429-160.201143-203.373714-248.429714-360.722286-248.429714-443.209142 0-145.883429 118.747429-264.630857 264.649142-264.630858z m0 0" fill="#4167F7" /></svg>